HIERARCHY
ROOT Hips
{
	OFFSET -0.179506 -22.333345 2.821913
	CHANNELS 6 Xposition Yposition Zposition Zrotation Yrotation Xrotation 
	JOINT LeftUpLeg
	{
		OFFSET 6.951974 -9.140623 -0.681533
		CHANNELS 3 Zrotation Yrotation Xrotation
		JOINT LeftLeg
		{
			OFFSET 3.427654 -37.519855 -0.449580
			CHANNELS 3 Zrotation Yrotation Xrotation
			JOINT LeftFoot
			{
				OFFSET -1.359570 -39.796059 -4.369333
				CHANNELS 3 Zrotation Yrotation Xrotation
				JOINT LeftToe
				{
					OFFSET 2.635814 -5.579078 11.928840
					CHANNELS 3 Zrotation Yrotation Xrotation
					End Site
					{
						OFFSET 0.000000 0.000000 0.000000
					}
				}
			}
		}
	}
	JOINT RightUpLeg
	{
		OFFSET -6.767048 -9.052170 -0.431982
		CHANNELS 3 Zrotation Yrotation Xrotation
		JOINT RightLeg
		{
			OFFSET -3.829005 -38.256897 -0.885003
			CHANNELS 3 Zrotation Yrotation Xrotation
			JOINT RightFoot
			{
				OFFSET 1.577377 -39.841461 -4.231180
				CHANNELS 3 Zrotation Yrotation Xrotation
				JOINT RightToe
				{
					OFFSET -2.537174 -4.814398 12.334795
					CHANNELS 3 Zrotation Yrotation Xrotation
					End Site
					{
						OFFSET 0.000000 0.000000 0.000000
					}
				}
			}
		}
	}
	JOINT Spine
	{
		OFFSET -0.253288 10.896323 -2.669631
		CHANNELS 3 Zrotation Yrotation Xrotation
		JOINT Spine1
		{
			OFFSET 0.548704 13.518043 0.109247
			CHANNELS 3 Zrotation Yrotation Xrotation
			JOINT Spine2
			{
				OFFSET 0.145701 5.292222 2.542457
				CHANNELS 3 Zrotation Yrotation Xrotation
				JOINT Neck
				{
					OFFSET -0.277840 21.387037 -4.285703
					CHANNELS 3 Zrotation Yrotation Xrotation
					JOINT Head
					{
						OFFSET 0.515184 6.496960 5.134897
						CHANNELS 3 Zrotation Yrotation Xrotation
						End Site
						{
							OFFSET 0.000000 0.000000 0.000000
						}
					}
				}
				JOINT LeftShoulder
				{
					OFFSET 7.884473 12.174932 -3.408961
					CHANNELS 3 Zrotation Yrotation Xrotation
					JOINT LeftArm
					{
						OFFSET 9.097692 3.046888 -0.886815
						CHANNELS 3 Zrotation Yrotation Xrotation
						JOINT LeftForeArm
						{
							OFFSET 25.961220 -1.277207 -2.745643
							CHANNELS 3 Zrotation Yrotation Xrotation
							JOINT LeftHand
							{
								OFFSET 24.923361 0.898606 -0.117091
								CHANNELS 3 Zrotation Yrotation Xrotation
								End Site
								{
									OFFSET 0.000000 0.000000 0.000000
								}
							}
						}
					}
				}
				JOINT RightShoulder
				{
					OFFSET -8.175920 11.883285 -3.861528
					CHANNELS 3 Zrotation Yrotation Xrotation
					JOINT RightArm
					{
						OFFSET -9.601238 3.255117 -0.914307
						CHANNELS 3 Zrotation Yrotation Xrotation
						JOINT RightForeArm
						{
							OFFSET -25.374195 -1.332924 -2.140099
							CHANNELS 3 Zrotation Yrotation Xrotation
							JOINT RightHand
							{
								OFFSET -25.529810 0.777228 -0.555919
								CHANNELS 3 Zrotation Yrotation Xrotation
								End Site
								{
									OFFSET 0.000000 0.000000 0.000000
								}
							}
						}
					}
				}
			}
		}
	}
}
MOTION
Frames: 7
Frame Time: 0.033333
5.113256 360.915314 94.325836 177.173670 1.543040 88.125720 2.040745 3.024192 6.609334 1.114007 -2.654731 -4.845213 -1.659109 8.424802 -0.209005 nan nan nan -0.150655 -3.165934 3.658455 1.691653 -0.398129 -2.472258 7.244329 -3.382826 2.952606 nan nan nan -0.618262 2.376640 1.334967 2.858535 -2.272843 4.985941 1.932841 -1.025964 -2.971046 0.482330 -3.851399 2.587541 4.688798 -3.835819 -3.154457 -23.049255 0.874292 1.803027 -58.897319 -3.209429 16.681410 1.312329 -27.138883 8.170616 -6.984279 -11.722630 -0.855245 22.372667 3.028749 1.562320 58.112427 3.450125 13.608035 -9.540869 27.292054 -8.232873 6.662268 11.806561 -12.523845 
5.122470 360.936035 94.331131 177.183047 1.572435 87.913055 2.067247 3.159633 6.867195 1.160846 -2.485477 -4.850817 -1.579417 8.373985 0.144585 nan nan nan -0.156739 -3.211420 3.920441 1.715462 -0.396454 -2.461449 7.178035 -3.271747 2.906433 nan nan nan -0.432945 2.377752 1.526227 2.805953 -2.244160 4.990231 1.884630 -1.014627 -2.967090 0.314560 -3.996003 2.409760 4.571632 -4.065875 -2.923286 -23.404388 0.704936 1.987173 -58.690876 -3.142780 16.460575 1.428285 -27.272645 7.882041 -6.923702 -11.631683 -0.940395 22.737509 3.248217 1.690006 57.633516 3.527566 13.397349 -9.590828 27.015024 -8.630821 6.772485 11.801106 -12.338899 
5.135575 360.934326 94.342606 177.179311 1.515041 87.846493 1.983248 3.119049 7.025692 1.107965 -2.647778 -5.043034 -1.503944 8.318469 -0.186150 nan nan nan -0.218338 -3.223360 3.982571 1.708519 -0.370257 -2.428335 7.189962 -3.239924 2.866178 nan nan nan -0.479238 2.391860 1.550004 2.792967 -2.223935 5.079984 1.855827 -1.007551 -3.000118 0.266859 -4.077926 2.289475 4.580608 -4.269261 -2.658732 -23.508730 0.628956 2.067055 -58.548982 -3.155822 16.407813 1.361926 -27.439550 7.844272 -6.793815 -11.669077 -0.948416 22.992952 3.359349 1.760210 57.363699 3.610837 13.292158 -9.565584 26.838414 -8.832029 6.753692 11.836404 -12.278398 
5.127006 360.903809 94.322380 177.236001 1.407340 87.902993 1.824399 3.120007 6.899192 1.056113 -2.631337 -4.928697 -1.690735 8.343957 -0.195476 nan nan nan -0.212468 -3.172730 4.081423 1.477459 -0.300647 -2.757983 7.129141 -3.337185 2.879971 nan nan nan -0.477887 2.419938 1.537202 2.785889 -2.272969 5.105826 1.838161 -0.985208 -3.079839 0.190794 -3.977000 2.158506 4.579074 -4.111504 -2.635916 -23.588926 0.501784 2.055496 -58.456583 -3.202206 16.448193 1.314986 -27.178763 7.677550 -6.806673 -11.720704 -0.898209 23.087834 3.449017 1.763762 57.157339 3.640258 13.216098 -9.551318 26.648851 -9.122847 6.728210 11.955712 -12.233504 
5.076162 360.869690 94.266296 177.301103 1.110928 88.060196 1.351953 2.717875 6.760803 1.602123 -2.781335 -5.166192 -2.206222 7.900669 -0.293463 nan nan nan -0.166063 -3.028342 4.387631 0.692696 -0.394432 -3.741163 7.314660 -3.320787 3.118132 nan nan nan -0.642031 2.436814 1.343759 2.757531 -2.334921 5.179249 1.759713 -0.960785 -3.036549 0.107747 -3.990279 2.132312 4.657487 -4.115322 -2.762573 -23.403023 0.753524 1.955803 -59.852894 -3.371245 16.124021 -0.660282 -29.890368 5.266150 -5.437462 -12.181868 -4.311276 22.732616 3.505554 1.830510 57.288769 3.903355 13.167058 -9.210420 26.530252 -10.473723 6.196977 12.427329 -12.827331 
5.157448 360.911316 94.207726 177.190534 0.872238 87.835209 1.233866 2.404674 7.124259 1.424239 -2.515342 -5.343046 -2.345437 7.837835 0.024975 nan nan nan -0.449636 -2.801816 4.685105 0.840246 -1.059486 -3.803627 7.039286 -2.897677 3.138536 nan nan nan -0.009535 1.977404 2.136182 1.990628 -2.264369 4.100411 1.485558 -0.876016 -2.467511 -0.373098 -3.852615 2.149924 4.831915 -4.139443 -2.910337 -23.491444 1.894918 1.510175 -62.450825 -5.380651 11.214667 6.450427 -25.901552 -8.191440 -2.862294 -13.225911 -13.275730 22.346509 3.913275 2.355332 58.663786 5.070659 12.909853 -10.102845 24.923898 -11.619292 5.473554 12.980333 -13.129825 
5.107176 360.872589 94.196587 177.431294 0.943407 87.791196 1.304309 2.329836 7.037486 1.392707 -2.527396 -5.183848 -2.439384 7.666135 0.099702 nan nan nan -0.460614 -2.855008 4.798756 0.916418 -1.168511 -3.913021 7.045768 -2.932808 3.246008 nan nan nan -0.134049 2.323329 1.989408 2.167031 -2.029090 4.205532 1.788703 -1.206607 -2.254080 -0.473664 -3.985833 2.127578 4.891499 -4.418997 -3.105924 -23.640932 1.131358 1.828830 -62.605311 -5.990656 11.077440 6.233289 -25.113660 -8.544336 -2.941043 -13.605953 -13.400234 22.164121 3.879815 2.329633 58.595363 4.931041 12.584596 -10.521450 25.006077 -12.229133 5.255052 13.250257 -13.249062 
